<mxfile host="app.diagrams.net" modified="2024-02-01T15:43:15.710Z" agent="Mozilla/5.0 (Windows NT 10.0; Win64; x64) AppleWebKit/537.36 (KHTML, like Gecko) Chrome/121.0.0.0 Safari/537.36 Edg/121.0.0.0" etag="PhMf3OBvwVm1aP4O8GDN" version="23.1.1" type="device">
  <diagram id="C5RBs43oDa-KdzZeNtuy" name="Page-1">
    <mxGraphModel dx="1042" dy="535" grid="1" gridSize="10" guides="1" tooltips="1" connect="1" arrows="1" fold="1" page="1" pageScale="1" pageWidth="827" pageHeight="1169" math="0" shadow="0">
      <root>
        <mxCell id="WIyWlLk6GJQsqaUBKTNV-0" />
        <mxCell id="WIyWlLk6GJQsqaUBKTNV-1" parent="WIyWlLk6GJQsqaUBKTNV-0" />
        <mxCell id="FWJda6RfkHRRVqKoRNyj-2" value="" style="edgeStyle=orthogonalEdgeStyle;rounded=0;orthogonalLoop=1;jettySize=auto;html=1;" edge="1" parent="WIyWlLk6GJQsqaUBKTNV-1" source="FWJda6RfkHRRVqKoRNyj-0" target="FWJda6RfkHRRVqKoRNyj-1">
          <mxGeometry relative="1" as="geometry" />
        </mxCell>
        <mxCell id="FWJda6RfkHRRVqKoRNyj-0" value="&lt;font style=&quot;font-size: 30px;&quot;&gt;Begin&lt;/font&gt;" style="ellipse;whiteSpace=wrap;html=1;fillColor=#60a917;strokeColor=#2D7600;fontColor=#ffffff;" vertex="1" parent="WIyWlLk6GJQsqaUBKTNV-1">
          <mxGeometry x="354" y="20" width="120" height="80" as="geometry" />
        </mxCell>
        <mxCell id="FWJda6RfkHRRVqKoRNyj-4" value="" style="edgeStyle=orthogonalEdgeStyle;rounded=0;orthogonalLoop=1;jettySize=auto;html=1;" edge="1" parent="WIyWlLk6GJQsqaUBKTNV-1" source="FWJda6RfkHRRVqKoRNyj-1" target="FWJda6RfkHRRVqKoRNyj-3">
          <mxGeometry relative="1" as="geometry" />
        </mxCell>
        <mxCell id="FWJda6RfkHRRVqKoRNyj-9" value="" style="edgeStyle=orthogonalEdgeStyle;rounded=0;orthogonalLoop=1;jettySize=auto;html=1;" edge="1" parent="WIyWlLk6GJQsqaUBKTNV-1" source="FWJda6RfkHRRVqKoRNyj-1" target="FWJda6RfkHRRVqKoRNyj-8">
          <mxGeometry relative="1" as="geometry" />
        </mxCell>
        <mxCell id="FWJda6RfkHRRVqKoRNyj-1" value="&lt;font style=&quot;font-size: 15px;&quot;&gt;Vraag om aantal bolletjes&lt;/font&gt;" style="whiteSpace=wrap;html=1;" vertex="1" parent="WIyWlLk6GJQsqaUBKTNV-1">
          <mxGeometry x="354" y="190" width="120" height="60" as="geometry" />
        </mxCell>
        <mxCell id="FWJda6RfkHRRVqKoRNyj-10" style="edgeStyle=orthogonalEdgeStyle;rounded=0;orthogonalLoop=1;jettySize=auto;html=1;entryX=0;entryY=0.5;entryDx=0;entryDy=0;exitX=0.5;exitY=1;exitDx=0;exitDy=0;" edge="1" parent="WIyWlLk6GJQsqaUBKTNV-1" source="FWJda6RfkHRRVqKoRNyj-3" target="FWJda6RfkHRRVqKoRNyj-5">
          <mxGeometry relative="1" as="geometry" />
        </mxCell>
        <mxCell id="FWJda6RfkHRRVqKoRNyj-3" value="&lt;font style=&quot;font-size: 30px;&quot;&gt;1 t/m 3&lt;/font&gt;" style="whiteSpace=wrap;html=1;" vertex="1" parent="WIyWlLk6GJQsqaUBKTNV-1">
          <mxGeometry x="140" y="190" width="120" height="60" as="geometry" />
        </mxCell>
        <mxCell id="FWJda6RfkHRRVqKoRNyj-5" value="&lt;font style=&quot;font-size: 15px;&quot;&gt;Vraag om hoorntje of bakje&lt;/font&gt;" style="whiteSpace=wrap;html=1;" vertex="1" parent="WIyWlLk6GJQsqaUBKTNV-1">
          <mxGeometry x="354" y="430" width="120" height="60" as="geometry" />
        </mxCell>
        <mxCell id="FWJda6RfkHRRVqKoRNyj-8" value="&lt;font style=&quot;font-size: 30px;&quot;&gt;4 t/m 8&lt;/font&gt;" style="whiteSpace=wrap;html=1;" vertex="1" parent="WIyWlLk6GJQsqaUBKTNV-1">
          <mxGeometry x="560" y="190" width="120" height="60" as="geometry" />
        </mxCell>
      </root>
    </mxGraphModel>
  </diagram>
</mxfile>
